<?xml version="1.0" standalone="no"?>
<!DOCTYPE svg PUBLIC "-//W3C//DTD SVG 20010904//EN"
 "http://www.w3.org/TR/2001/REC-SVG-20010904/DTD/svg10.dtd">
<svg version="1.0" xmlns="http://www.w3.org/2000/svg"
 width="2084.000000pt" height="2968.000000pt" viewBox="0 0 2084.000000 2968.000000"
 preserveAspectRatio="xMidYMid meet">

<g transform="translate(0.000000,2968.000000) scale(0.100000,-0.100000)"
fill="#000000" stroke="none">
<path d="M9697 27869 c-1186 -71 -2505 -446 -3571 -1015 -711 -379 -1329 -837
-1891 -1399 -647 -647 -1166 -1380 -1586 -2240 -499 -1023 -746 -1944 -810
-3020 -14 -247 -7 -782 15 -1025 140 -1547 711 -3052 1695 -4470 233 -336 546
-731 768 -968 139 -149 220 -244 319 -377 714 -959 1260 -2574 1380 -4082 l6
-83 753 0 752 0 64 -77 c35 -43 91 -106 124 -141 l59 -64 -199 6 c-110 3 -445
8 -745 12 -539 5 -546 5 -615 -16 -240 -75 -395 -280 -395 -524 0 -179 82
-339 226 -442 34 -24 78 -51 98 -59 110 -46 -63 -43 3564 -60 1879 -9 3418
-18 3420 -20 2 -2 -5 -30 -15 -62 l-20 -58 -3424 -5 -3424 -5 -57 -22 c-131
-50 -247 -148 -305 -258 -91 -174 -82 -385 23 -544 52 -77 124 -143 203 -185
135 -71 -141 -64 3391 -77 1757 -7 3196 -13 3198 -14 2 -2 -2 -21 -8 -42 l-12
-40 -1777 -6 c-977 -4 -2327 -7 -3001 -7 l-1225 0 -68 -24 c-92 -33 -154 -75
-231 -156 -111 -118 -163 -261 -153 -425 7 -113 35 -195 99 -291 59 -89 136
-154 238 -203 l75 -36 459 -10 459 -10 516 -1011 c285 -556 534 -1034 555
-1062 85 -116 212 -205 361 -252 l80 -25 1236 -3 1237 -3 -103 -239 -103 -240
81 -38 c45 -22 675 -323 1399 -670 724 -348 1319 -632 1321 -632 12 0 -35 177
-68 256 -119 286 -421 692 -853 1146 -62 65 -112 122 -112 127 0 6 99 199 220
429 121 231 220 423 220 429 0 5 -16 17 -35 26 l-35 17 24 52 c20 45 57 126
62 136 1 1 14 -2 30 -9 16 -6 63 -24 105 -39 l76 -28 183 459 c101 252 185
458 186 456 1 -1 13 -215 25 -475 l23 -472 226 0 c404 -1 2551 20 2717 26
l163 6 -32 47 c-171 249 -615 504 -1371 787 l-202 75 12 477 c7 262 11 483 8
490 -2 7 -21 12 -43 12 l-39 0 -7 207 c-3 115 -9 294 -13 399 l-6 191 64 7
c35 3 97 9 137 12 l72 7 0 78 c0 155 -140 4499 -150 4674 -19 303 -35 408 -83
557 -25 73 -63 170 -86 215 l-41 83 432 2 432 3 218 1500 c120 825 224 1511
232 1525 7 14 58 99 113 190 642 1061 1062 2273 1192 3435 38 337 42 410 48
807 7 521 -15 890 -83 1340 -24 161 -70 426 -79 458 -4 12 9 15 78 15 98 0
145 20 194 83 161 211 4 1014 -434 2222 -41 113 -76 213 -78 222 -11 52 -77
118 -193 193 -368 237 -1057 360 -1912 342 -157 -4 -339 -11 -405 -17 -633
-55 -1097 -193 -1345 -400 l-45 -38 -80 45 c-133 74 -482 245 -615 302 -336
142 -655 224 -816 207 -227 -23 -324 -143 -249 -305 118 -254 728 -691 1685
-1208 l145 -79 8 -64 c35 -282 113 -628 201 -885 157 -462 337 -770 605 -1035
292 -290 589 -422 1013 -452 263 -18 440 10 637 103 247 116 495 355 689 665
117 188 251 475 322 689 18 55 36 103 40 108 3 4 17 -19 30 -50 44 -109 128
-269 188 -358 55 -82 163 -198 219 -235 19 -13 27 -41 57 -200 264 -1415 165
-2814 -294 -4165 -167 -492 -424 -1060 -683 -1511 -132 -230 -147 -249 -147
-190 0 36 -46 119 -86 158 -22 20 -61 47 -89 60 l-50 23 -1290 -4 c-1323 -4
-2855 -16 -2890 -22 -18 -4 -23 32 -107 796 -48 439 -86 800 -85 800 13 8 373
320 375 326 4 9 -126 237 -256 449 -305 495 -565 833 -737 955 -200 142 -578
266 -1057 345 -68 11 -138 22 -155 25 l-33 6 0 107 c0 59 3 158 7 219 l6 112
36 12 c20 7 72 30 116 52 242 121 422 302 505 510 87 218 141 587 160 1083 l8
241 35 69 c99 197 155 410 164 620 7 167 -5 259 -54 428 -58 203 -123 310
-253 427 -40 35 -116 105 -169 155 -53 49 -125 111 -161 136 -258 181 -614
281 -1055 295 -155 5 -197 2 -302 -15 -419 -72 -786 -292 -1079 -647 l-41 -49
-33 28 c-86 72 -222 114 -396 123 -233 11 -401 -56 -515 -207 -109 -144 -116
-241 -24 -317 l35 -29 -28 -34 c-103 -128 -128 -274 -69 -403 70 -154 213
-220 370 -173 26 8 47 10 47 6 0 -5 -23 -43 -51 -85 -52 -77 -120 -140 -191
-176 -21 -11 -36 -24 -33 -29 3 -5 48 -19 101 -31 129 -30 259 -24 357 15 38
16 70 26 71 24 1 -1 8 -39 14 -83 25 -163 90 -385 168 -573 44 -106 68 -138
233 -315 60 -64 156 -118 246 -138 l55 -12 0 -577 0 -577 -112 -7 c-596 -36
-1147 -227 -1414 -491 -213 -210 -377 -611 -493 -1205 -55 -284 -122 -824
-104 -841 5 -4 64 -12 133 -19 69 -6 127 -13 129 -15 2 -2 25 -307 52 -677 97
-1346 119 -1622 140 -1728 62 -321 266 -744 551 -1143 38 -54 75 -100 81 -102
7 -2 31 -9 54 -15 l42 -11 -101 -157 c-306 -475 -528 -889 -622 -1160 -151
-437 -155 -941 -9 -1422 19 -63 70 -192 113 -286 44 -94 96 -223 116 -285 59
-183 144 -362 245 -517 l21 -32 -685 0 -685 0 -7 73 c-55 607 -168 1203 -339
1792 -308 1065 -774 1994 -1277 2543 -420 458 -700 817 -1021 1307 -1161 1769
-1683 3669 -1513 5505 58 621 207 1286 412 1835 489 1309 1238 2446 2170 3298
1231 1123 2785 1840 4547 2097 529 77 1194 99 1691 55 1004 -88 1973 -364
2865 -816 162 -82 482 -258 498 -274 2 -2 -30 -50 -72 -107 -137 -186 -246
-433 -298 -672 -32 -149 -32 -433 0 -561 101 -401 376 -671 838 -824 349 -116
631 -146 1300 -138 468 5 549 11 779 58 588 122 957 455 1056 954 9 44 14 134
13 245 0 149 -3 187 -23 260 -125 468 -423 865 -836 1115 -403 244 -985 349
-1549 279 -414 -51 -758 -202 -1049 -459 l-97 -86 -153 87 c-1022 588 -2203
948 -3392 1034 -159 11 -755 11 -948 -1z m6388 -667 c581 -90 1016 -350 1306
-781 211 -313 300 -615 269 -914 -51 -500 -380 -836 -952 -972 -199 -47 -294
-56 -718 -66 -557 -14 -820 1 -1134 67 -571 120 -921 409 -1018 837 -28 123
-29 350 -3 487 41 222 148 471 283 660 86 121 251 286 372 372 119 85 322 187
464 233 123 40 308 80 441 94 147 16 539 6 690 -17z m-3472 -2863 c279 -56
766 -263 1184 -501 192 -110 401 -186 733 -267 438 -108 800 -147 1280 -138
605 12 1165 105 1695 281 105 35 191 63 191 62 1 0 42 -113 92 -251 411 -1141
573 -1940 427 -2114 -30 -34 -105 -56 -163 -46 -94 15 -210 114 -307 260 -77
116 -185 345 -241 512 -27 78 -50 141 -52 139 -2 -2 -18 -62 -37 -132 -108
-416 -322 -859 -553 -1145 -83 -103 -242 -254 -330 -312 -94 -63 -240 -132
-338 -159 -70 -20 -104 -22 -299 -23 -174 0 -241 4 -320 19 -319 60 -581 209
-820 466 -351 377 -625 1060 -712 1771 l-18 147 -155 82 c-701 375 -1292 762
-1540 1010 -128 128 -180 224 -150 280 11 21 68 58 108 70 53 16 221 11 325
-11z m3669 -90 c449 -31 845 -114 1097 -230 97 -45 218 -118 245 -148 18 -19
16 -20 -122 -65 -499 -160 -1277 -290 -1730 -288 -631 3 -1357 129 -1758 307
l-59 26 25 20 c191 149 484 257 875 322 138 24 393 53 525 60 144 8 765 6 902
-4z m-6410 -685 c284 -29 494 -81 673 -169 131 -64 207 -118 320 -225 55 -52
124 -113 152 -134 57 -43 135 -134 176 -206 34 -60 90 -225 113 -330 44 -211
12 -509 -80 -735 l-24 -60 -5 35 c-3 19 -12 105 -21 192 -27 262 -67 416 -137
534 -66 109 -205 271 -396 462 -107 105 -197 192 -201 192 -4 0 -27 -32 -51
-71 -62 -102 -152 -218 -222 -290 -93 -94 -220 -150 -538 -235 -33 -9 -34 -11
-67 -129 -65 -233 -120 -355 -186 -408 -69 -55 -142 -96 -254 -142 -58 -24
-108 -45 -110 -48 -3 -3 -14 -48 -25 -102 -33 -164 -56 -207 -143 -275 l-56
-42 -71 17 c-290 71 -466 -72 -472 -384 -2 -101 -8 -95 -77 80 -138 349 -194
718 -155 1019 39 307 105 467 303 728 293 389 627 617 1033 707 169 37 301 42
521 19z m-1861 -569 c70 -14 159 -54 196 -87 l22 -20 -48 -62 c-91 -115 -148
-241 -201 -438 -43 -164 -60 -281 -67 -472 l-6 -168 -51 -24 c-66 -30 -141
-46 -205 -42 l-50 3 47 57 c26 31 62 81 80 111 34 57 127 275 120 282 -2 3
-28 -12 -57 -31 -215 -145 -377 -131 -451 39 -62 140 3 301 164 412 31 21 55
40 53 41 -2 2 -36 8 -76 14 -83 12 -105 21 -127 56 -15 23 -15 28 1 69 41 107
143 207 257 250 94 35 252 39 399 10z m2626 -178 c223 -229 336 -378 383 -503
28 -77 57 -226 77 -404 21 -189 24 -714 5 -920 -63 -675 -151 -906 -421 -1110
-73 -56 -248 -148 -328 -174 -46 -15 -53 -21 -57 -49 -3 -18 -8 -162 -11 -321
-7 -316 -18 -388 -72 -489 -66 -121 -192 -204 -355 -233 -155 -29 -305 -6
-464 71 -211 102 -408 287 -580 546 l-69 103 -5 641 -5 640 -70 8 c-138 15
-257 94 -308 205 -30 64 -32 260 -3 341 24 71 87 135 146 151 59 16 171 7 240
-19 l55 -21 51 36 c130 89 187 178 222 345 l16 77 81 32 c110 45 228 115 289
174 28 27 56 50 61 52 6 1 46 12 90 25 94 27 256 32 318 10 55 -19 58 -5 10
38 -49 44 -99 61 -180 61 -77 0 -140 -22 -193 -67 l-42 -36 21 40 c19 38 96
262 117 342 6 24 17 37 34 42 181 53 304 97 378 134 76 38 103 59 178 138 49
51 116 132 148 179 48 71 62 85 76 78 9 -5 84 -78 167 -163z m-1922 -3594 c79
-129 162 -232 289 -359 167 -167 295 -251 476 -309 113 -37 317 -47 435 -20
236 52 399 226 440 469 8 49 17 92 20 94 15 16 476 -75 682 -134 183 -52 368
-126 467 -188 168 -105 396 -386 690 -854 121 -193 286 -473 286 -488 0 -5
-66 -67 -147 -136 -82 -69 -262 -223 -400 -342 l-253 -216 0 -68 c0 -37 -16
-614 -35 -1282 -19 -668 -35 -1229 -35 -1246 0 -28 -15 -46 -113 -137 l-113
-106 -1507 328 c-829 180 -1509 330 -1511 332 -2 2 -36 496 -75 1098 -39 602
-73 1096 -75 1098 -3 4 -103 13 -1020 98 -330 30 -601 57 -603 59 -2 1 4 68
12 147 95 887 299 1524 569 1776 254 238 723 402 1291 451 195 18 175 23 230
-65z m3525 -2998 l84 -770 -56 -53 c-97 -92 -102 -108 -167 -526 l-57 -369
-162 -155 -162 -155 0 89 c1 49 16 612 34 1251 l33 1162 29 25 c16 13 97 82
179 154 83 71 153 127 156 123 3 -3 44 -353 89 -776z m-4722 516 c348 -33 635
-61 637 -63 2 -2 36 -494 75 -1093 39 -599 74 -1092 78 -1096 4 -3 708 -158
1564 -344 l1556 -338 147 134 c280 257 438 400 440 397 4 -5 -190 -1216 -195
-1221 -3 -3 -68 6 -145 19 l-140 24 -1905 24 c-1543 20 -1912 27 -1943 38 -32
12 -52 33 -122 133 -243 347 -445 768 -500 1039 -17 86 -45 424 -130 1605 -54
758 -57 801 -52 801 1 0 287 -27 635 -59z m9126 -1339 c64 -35 106 -105 106
-178 0 -41 -426 -2999 -446 -3096 l-6 -28 -2066 0 -2067 0 -155 -30 c-85 -16
-161 -30 -167 -30 -8 0 -13 14 -13 35 l0 35 -1089 0 c-599 0 -1097 3 -1106 6
-8 4 -22 19 -30 35 -18 33 -7 72 24 88 13 7 179 11 494 11 260 0 744 3 1075 7
l601 6 -5 26 c-4 22 125 871 311 2046 24 154 65 417 91 585 l46 305 47 65 c52
73 103 105 192 119 30 5 455 10 944 11 490 2 1383 6 1985 10 602 3 1115 5
1140 2 25 -2 67 -16 94 -30z m-8209 -2312 c577 -20 1247 -30 2122 -30 l902 0
55 -172 c140 -440 166 -524 166 -535 0 -10 -207 -13 -1012 -15 l-1013 -3 -78
38 c-100 49 -254 100 -382 127 -74 16 -150 23 -295 27 -211 6 -313 -3 -465
-40 l-90 -22 270 -6 c382 -9 562 -30 827 -96 l148 -36 -35 -38 c-40 -45 -49
-74 -42 -135 l5 -44 -143 0 c-371 0 -834 -110 -1337 -317 -78 -32 -135 -59
-126 -61 8 -2 95 20 194 48 546 155 963 238 1284 256 236 13 565 -27 728 -88
91 -34 81 -13 -18 35 -88 43 -92 46 -58 47 25 0 46 -8 66 -25 l29 -24 13 24
13 25 794 0 793 0 0 -45 c0 -38 3 -45 19 -45 11 0 102 16 204 35 l185 35 1621
0 1621 0 31 -42 c67 -92 152 -323 174 -477 31 -213 29 -152 129 -3326 30 -924
53 -1681 51 -1683 -2 -3 -1651 -142 -1682 -142 -7 0 -13 -8 -13 -19 0 -16 -11
-20 -66 -26 -36 -4 -70 -3 -74 2 -4 4 -12 127 -19 273 -33 729 -168 2931 -233
3804 l-12 159 -40 17 c-631 275 -3092 1287 -3103 1277 -9 -10 2059 -923 2892
-1277 l170 -72 28 -407 c86 -1252 249 -3330 293 -3735 l7 -59 78 7 78 6 5 -42
c5 -35 48 -487 58 -613 3 -27 0 -30 -29 -33 -40 -4 -38 44 -13 -422 l18 -355
-200 -505 c-111 -278 -204 -508 -207 -512 -6 -7 -574 201 -1442 528 l-237 88
10 26 c5 14 49 140 98 280 248 722 644 1846 650 1850 12 8 391 1091 385 1100
-3 5 16 69 43 142 89 244 115 319 110 324 -3 2 -448 166 -989 363 l-984 359
-1744 30 -1744 31 -59 58 c-230 224 -434 550 -524 833 -20 63 -72 194 -116
290 -91 199 -125 297 -162 460 -116 524 -74 965 134 1424 113 247 329 627 547
960 l104 159 177 -7 c97 -3 303 -11 457 -16z m3249 -41 c66 -11 123 -22 125
-25 6 -6 -70 -507 -79 -516 -5 -7 -181 534 -180 555 0 9 -4 10 134 -14z
m-2592 -4239 l2256 -28 939 -343 c516 -188 940 -343 941 -345 2 -1 -12 -47
-31 -101 l-35 -98 -358 3 c-198 1 -1727 7 -3399 12 -1875 7 -3067 15 -3110 21
-247 34 -426 275 -387 521 28 186 187 355 362 386 25 4 162 6 305 4 143 -2
1275 -16 2517 -32z m3919 -1357 c-27 -76 -100 -286 -162 -467 l-114 -328 -850
6 c-467 3 -1903 9 -3190 12 -1287 3 -2367 10 -2399 15 -196 29 -358 191 -389
388 -32 208 101 422 307 493 48 16 233 17 3448 18 l3397 0 -48 -137z m-386
-1070 c-4 -10 -94 -272 -200 -583 -106 -311 -259 -756 -339 -990 -81 -233
-145 -429 -142 -435 2 -6 54 -28 115 -50 84 -31 111 -44 111 -58 0 -16 -2 -16
-31 -2 -17 9 -33 15 -35 13 -2 -2 -122 -278 -267 -614 l-263 -609 -1235 3
c-782 2 -1254 7 -1289 13 -134 25 -296 134 -373 252 -18 29 -267 509 -552
1067 -285 558 -518 1016 -519 1017 -1 1 -216 6 -479 13 l-479 11 -71 36 c-140
70 -244 215 -268 371 -31 205 79 417 267 512 l68 35 520 5 c287 3 1634 6 2995
8 2352 2 2473 1 2466 -15z m2886 -15 c2 -7 26 -783 24 -786 -2 -2 -1288 19
-1291 22 -4 3 -63 650 -60 653 3 4 1232 110 1294 112 17 0 32 0 33 -1z m-536
-863 c242 -3 487 -8 544 -11 l104 -6 -7 -257 c-3 -141 -9 -353 -13 -472 l-6
-215 119 -43 c643 -232 1141 -480 1346 -671 l63 -59 -60 -1 c-33 0 -674 -7
-1424 -15 -750 -8 -1366 -13 -1371 -10 -4 2 -10 75 -13 162 -4 87 -23 475 -42
863 -19 388 -35 716 -35 729 l0 24 178 -7 c97 -3 375 -8 617 -11z m-2080
-1495 c308 -117 563 -216 568 -219 4 -4 -10 -44 -30 -89 l-38 -81 -577 297
c-504 259 -575 298 -567 314 11 21 -65 47 644 -222z m-592 74 c189 -95 1121
-575 1125 -579 2 -2 -95 -191 -216 -421 l-220 -419 112 -118 c391 -417 647
-738 801 -1005 58 -101 120 -246 103 -239 -7 2 -587 280 -1290 617 l-1276 612
30 71 c17 40 101 234 187 432 86 198 231 532 322 742 90 211 166 383 167 383
2 0 72 -34 155 -76z"/>
<path d="M14400 26020 c-155 -28 -277 -120 -342 -257 -119 -251 6 -544 270
-632 62 -21 66 -21 1365 -19 l1303 3 76 37 c137 68 223 180 254 331 46 217
-89 446 -304 519 l-67 23 -1255 1 c-690 1 -1275 -2 -1300 -6z m2635 -114 c76
-38 143 -105 181 -181 26 -54 29 -70 29 -160 0 -89 -3 -106 -28 -157 -39 -79
-104 -143 -185 -181 l-67 -32 -1269 -3 c-1139 -2 -1275 -1 -1325 14 -116 33
-209 118 -251 231 -31 83 -25 216 14 291 50 98 129 166 229 198 34 10 284 12
1327 11 l1285 -2 60 -29z"/>
<path d="M14775 25786 c-43 -18 -92 -78 -105 -127 -34 -124 81 -246 211 -224
50 9 111 54 132 98 19 40 22 112 6 154 -14 38 -57 83 -96 99 -40 17 -109 17
-148 0z m141 -100 c45 -45 47 -95 5 -137 -83 -83 -214 17 -157 120 33 59 102
67 152 17z"/>
<path d="M16410 25781 c-58 -30 -93 -83 -98 -145 -14 -171 175 -267 303 -155
69 61 82 162 30 240 -46 71 -161 100 -235 60z m130 -76 c37 -19 50 -43 50 -90
0 -71 -86 -119 -151 -85 -51 28 -61 117 -16 157 39 36 73 41 117 18z"/>
<path d="M15364 25623 c3 -10 10 -38 16 -63 19 -72 55 -132 108 -182 175 -164
437 -44 478 220 4 23 3 42 -2 42 -5 0 -22 -27 -37 -59 -52 -108 -142 -180
-238 -189 -100 -10 -183 42 -260 164 -51 79 -76 105 -65 67z"/>
<path d="M15611 23210 c-265 -56 -457 -238 -521 -494 -84 -332 114 -673 450
-778 112 -35 275 -32 385 6 164 57 298 169 372 312 57 109 76 188 76 309 0
121 -19 200 -76 309 -74 143 -209 257 -370 311 -87 29 -239 41 -316 25z m299
-106 c78 -26 197 -110 251 -177 96 -120 134 -237 127 -392 -6 -118 -29 -187
-95 -287 -106 -161 -269 -248 -468 -248 -157 0 -278 47 -390 151 -118 111
-177 248 -177 414 0 73 6 117 21 165 58 184 211 332 397 385 70 20 262 14 334
-11z"/>
<path d="M15570 23038 c-211 -74 -341 -254 -341 -473 0 -174 81 -324 225 -417
249 -161 589 -67 715 197 40 83 55 158 49 251 -12 192 -131 358 -307 430 -96
39 -248 44 -341 12z m300 -87 c111 -43 197 -129 241 -241 30 -75 31 -213 2
-286 -45 -114 -132 -202 -240 -245 -45 -18 -79 -23 -154 -23 -90 -1 -99 1
-170 36 -93 46 -158 112 -202 206 -29 61 -32 75 -32 167 0 92 3 106 32 167 56
119 157 204 278 235 67 17 177 10 245 -16z"/>
<path d="M15575 22825 l-130 -74 5 -162 5 -162 136 -71 136 -71 116 84 c111
79 116 85 122 125 12 83 22 241 16 248 -17 19 -246 158 -260 157 -9 0 -74 -33
-146 -74z m254 -64 c112 -57 105 -44 117 -211 l6 -95 -103 -47 c-57 -26 -109
-49 -116 -50 -6 -2 -54 24 -107 57 l-96 60 0 112 0 112 93 55 c50 30 95 55
100 56 4 0 52 -22 106 -49z"/>
<path d="M10720 22274 c-38 -16 -67 -40 -81 -65 -7 -15 3 -16 109 -12 98 4
127 2 180 -15 71 -23 79 -14 35 39 -53 63 -164 87 -243 53z"/>
<path d="M9717 21865 c-22 -7 -50 -24 -64 -37 -27 -25 -57 -77 -50 -85 3 -2
25 6 49 18 53 28 168 37 224 19 22 -7 55 -24 74 -37 39 -26 48 -17 30 28 -36
87 -160 131 -263 94z"/>
<path d="M10765 21851 c-50 -13 -93 -39 -119 -74 -23 -30 -33 -57 -22 -57 2 0
25 10 52 22 38 17 68 22 134 23 77 0 90 -3 143 -32 l59 -32 -7 26 c-22 88
-141 149 -240 124z"/>
<path d="M10300 21793 c0 -6 34 -96 76 -200 85 -212 189 -517 198 -581 5 -36
3 -46 -18 -67 -22 -22 -34 -25 -93 -25 -38 0 -83 4 -100 9 -53 15 -47 -4 9
-30 40 -19 68 -24 129 -24 68 0 80 3 103 24 41 38 51 87 37 173 -27 168 -144
451 -248 604 -67 99 -92 131 -93 117z"/>
<path d="M9785 21569 c-48 -13 -86 -60 -92 -112 -17 -152 195 -207 252 -65 30
76 -8 157 -83 178 -42 11 -37 11 -77 -1z"/>
<path d="M10781 21519 c-18 -4 -48 -21 -65 -38 -28 -28 -31 -37 -31 -92 0 -57
2 -62 37 -95 32 -29 45 -34 85 -34 66 0 106 27 128 84 17 44 17 48 0 91 -25
66 -85 99 -154 84z"/>
<path d="M9983 20791 c12 -100 79 -182 179 -219 65 -24 148 -38 148 -25 0 6
-28 30 -62 53 -113 78 -182 139 -217 190 -19 27 -39 50 -44 50 -6 0 -7 -20 -4
-49z"/>
</g>
</svg>
